<svg width="206" height="42" viewBox="0 0 206 42" fill="none" xmlns="http://www.w3.org/2000/svg">
<path d="M21.64 41L19.912 33.848H10.216L8.53598 41H0.375977L10.408 7.73598H19.96L29.992 41H21.64ZM11.56 28.136H18.568L15.064 13.448L11.56 28.136Z" fill="#0E0E0E"/>
<path d="M47.2165 14.696C49.4245 14.696 51.1525 15.368 52.4005 16.712C53.6485 18.056 54.2725 19.944 54.2725 22.376V41H46.6885V23.672C46.6885 22.392 46.4805 21.512 46.0645 21.032C45.6805 20.52 45.0885 20.264 44.2885 20.264C42.7525 20.264 41.2805 21.368 39.8725 23.576V41H32.2885V15.512H38.9125L39.4405 18.536C40.5285 17.256 41.6965 16.296 42.9445 15.656C44.2245 15.016 45.6485 14.696 47.2165 14.696Z" fill="#0E0E0E"/>
<path d="M80.2476 33.608C80.2476 34.568 80.3756 35.272 80.6316 35.72C80.9196 36.168 81.3676 36.504 81.9756 36.728L80.3916 41.672C78.8236 41.544 77.5436 41.208 76.5516 40.664C75.5596 40.088 74.7916 39.192 74.2476 37.976C72.5836 40.536 70.0236 41.816 66.5676 41.816C64.0396 41.816 62.0236 41.08 60.5196 39.608C59.0156 38.136 58.2636 36.216 58.2636 33.848C58.2636 31.064 59.2876 28.936 61.3356 27.464C63.3836 25.992 66.3436 25.256 70.2156 25.256H72.8076V24.152C72.8076 22.648 72.4876 21.624 71.8476 21.08C71.2076 20.504 70.0876 20.216 68.4876 20.216C67.6556 20.216 66.6476 20.344 65.4636 20.6C64.2796 20.824 63.0636 21.144 61.8156 21.56L60.0876 16.568C61.6876 15.96 63.3196 15.496 64.9836 15.176C66.6796 14.856 68.2476 14.696 69.6876 14.696C73.3356 14.696 76.0076 15.448 77.7036 16.952C79.3996 18.456 80.2476 20.712 80.2476 23.72V33.608ZM68.7756 36.392C70.5036 36.392 71.8476 35.576 72.8076 33.944V29.432H70.9356C69.2076 29.432 67.9116 29.736 67.0476 30.344C66.2156 30.952 65.7996 31.896 65.7996 33.176C65.7996 34.2 66.0556 35 66.5676 35.576C67.1116 36.12 67.8476 36.392 68.7756 36.392Z" fill="#0E0E0E"/>
<path d="M105.695 7.73598V34.76H118.655L117.839 41H97.8231V7.73598H105.695Z" fill="#0E0E0E"/>
<path d="M143.089 41H136.513L136.177 37.784C134.321 40.472 131.745 41.816 128.449 41.816C126.113 41.816 124.337 41.112 123.121 39.704C121.937 38.296 121.345 36.328 121.345 33.8V15.512H128.929V32.84C128.929 34.088 129.121 34.968 129.505 35.48C129.921 35.96 130.545 36.2 131.377 36.2C132.977 36.2 134.353 35.208 135.505 33.224V15.512H143.089V41Z" fill="#0E0E0E"/>
<path d="M156.638 15.512V41H149.054V15.512H156.638ZM156.302 0.919983L159.278 6.58398L147.95 11.144L145.838 7.25598L156.302 0.919983Z" fill="#0E0E0E"/>
<path d="M180.553 15.512V20.84L169.033 35.24H180.793L180.121 41H160.249V35.624L171.817 21.224H161.257V15.512H180.553Z" fill="#0E0E0E"/>
<path d="M204.185 33.608C204.185 34.568 204.313 35.272 204.569 35.72C204.857 36.168 205.305 36.504 205.913 36.728L204.329 41.672C202.761 41.544 201.481 41.208 200.489 40.664C199.497 40.088 198.729 39.192 198.185 37.976C196.521 40.536 193.961 41.816 190.505 41.816C187.977 41.816 185.961 41.08 184.457 39.608C182.953 38.136 182.201 36.216 182.201 33.848C182.201 31.064 183.225 28.936 185.273 27.464C187.321 25.992 190.281 25.256 194.153 25.256H196.745V24.152C196.745 22.648 196.425 21.624 195.785 21.08C195.145 20.504 194.025 20.216 192.425 20.216C191.593 20.216 190.585 20.344 189.401 20.6C188.217 20.824 187.001 21.144 185.753 21.56L184.025 16.568C185.625 15.96 187.257 15.496 188.921 15.176C190.617 14.856 192.185 14.696 193.625 14.696C197.273 14.696 199.945 15.448 201.641 16.952C203.337 18.456 204.185 20.712 204.185 23.72V33.608ZM192.713 36.392C194.441 36.392 195.785 35.576 196.745 33.944V29.432H194.873C193.145 29.432 191.849 29.736 190.985 30.344C190.153 30.952 189.737 31.896 189.737 33.176C189.737 34.2 189.993 35 190.505 35.576C191.049 36.12 191.785 36.392 192.713 36.392Z" fill="#0E0E0E"/>
</svg>
