<svg width="20" height="13" viewBox="0 0 20 13" fill="none" xmlns="http://www.w3.org/2000/svg">
<path d="M11.8182 3.9682C11.8182 3.88553 11.8485 3.80631 11.9091 3.73052C11.9697 3.65474 12.0379 3.60307 12.1136 3.57552C12.5682 3.42395 13.0341 3.30684 13.5114 3.22417C13.9886 3.14149 14.4848 3.10016 15 3.10016C15.3333 3.10016 15.6591 3.11738 15.9773 3.15183C16.2955 3.18627 16.6061 3.23794 16.9091 3.30684C17 3.33439 17.0833 3.38606 17.1591 3.46184C17.2348 3.53763 17.2727 3.62374 17.2727 3.72019C17.2727 3.87175 17.2159 3.98887 17.1023 4.07154C16.9886 4.15421 16.8485 4.17488 16.6818 4.13355C16.4242 4.06465 16.1553 4.01298 15.875 3.97854C15.5947 3.94409 15.303 3.92687 15 3.92687C14.5606 3.92687 14.1364 3.96476 13.7273 4.04054C13.3182 4.11632 12.9167 4.22999 12.5227 4.38156C12.3106 4.45045 12.1402 4.44701 12.0114 4.37122C11.8826 4.29544 11.8182 4.1611 11.8182 3.9682ZM11.8182 8.5151C11.8182 8.43243 11.8485 8.34976 11.9091 8.26709C11.9697 8.18442 12.0379 8.12931 12.1136 8.10175C12.5682 7.95019 13.0341 7.83651 13.5114 7.76073C13.9886 7.68495 14.4848 7.64706 15 7.64706C15.3333 7.64706 15.6591 7.66428 15.9773 7.69873C16.2955 7.73317 16.6061 7.78484 16.9091 7.85374C17 7.88129 17.0833 7.93296 17.1591 8.00874C17.2348 8.08453 17.2727 8.17064 17.2727 8.26709C17.2727 8.41865 17.2159 8.53577 17.1023 8.61844C16.9886 8.70111 16.8485 8.72178 16.6818 8.68044C16.4242 8.61155 16.1553 8.55988 15.875 8.52544C15.5947 8.49099 15.303 8.47377 15 8.47377C14.5606 8.47377 14.1364 8.50821 13.7273 8.57711C13.3182 8.646 12.9167 8.75623 12.5227 8.90779C12.3106 8.97668 12.1402 8.97668 12.0114 8.90779C11.8826 8.8389 11.8182 8.708 11.8182 8.5151ZM11.8182 6.24165C11.8182 6.15898 11.8485 6.07976 11.9091 6.00397C11.9697 5.92819 12.0379 5.87652 12.1136 5.84897C12.5682 5.6974 13.0341 5.58029 13.5114 5.49761C13.9886 5.41494 14.4848 5.37361 15 5.37361C15.3333 5.37361 15.6591 5.39083 15.9773 5.42528C16.2955 5.45972 16.6061 5.51139 16.9091 5.58029C17 5.60784 17.0833 5.65951 17.1591 5.73529C17.2348 5.81108 17.2727 5.89719 17.2727 5.99364C17.2727 6.1452 17.2159 6.26232 17.1023 6.34499C16.9886 6.42766 16.8485 6.44833 16.6818 6.40699C16.4242 6.3381 16.1553 6.28643 15.875 6.25199C15.5947 6.21754 15.303 6.20032 15 6.20032C14.5606 6.20032 14.1364 6.23821 13.7273 6.31399C13.3182 6.38977 12.9167 6.50344 12.5227 6.65501C12.3106 6.7239 12.1402 6.72046 12.0114 6.64467C11.8826 6.56889 11.8182 6.43455 11.8182 6.24165ZM4.72727 10.3339C5.54545 10.3339 6.33712 10.42 7.10227 10.5922C7.86742 10.7644 8.62121 11.0228 9.36364 11.3672V2.54213C8.68182 2.12878 7.94318 1.80843 7.14773 1.58108C6.35227 1.35374 5.54545 1.24006 4.72727 1.24006C4.15152 1.24006 3.58712 1.30551 3.03409 1.43641C2.48106 1.5673 1.92424 1.7292 1.36364 1.9221V10.8919C1.83333 10.699 2.36742 10.5578 2.96591 10.4682C3.56439 10.3786 4.15152 10.3339 4.72727 10.3339ZM10.7273 11.3672C11.4848 11.0228 12.2273 10.7644 12.9545 10.5922C13.6818 10.42 14.4545 10.3339 15.2727 10.3339C15.8485 10.3339 16.4432 10.3752 17.0568 10.4579C17.6705 10.5405 18.197 10.6508 18.6364 10.7886V1.9221C18.1212 1.68786 17.5758 1.51563 17 1.40541C16.4242 1.29518 15.8485 1.24006 15.2727 1.24006C14.4545 1.24006 13.6629 1.35374 12.8977 1.58108C12.1326 1.80843 11.4091 2.12878 10.7273 2.54213V11.3672ZM10.0455 13C9.92424 13 9.81439 12.9897 9.71591 12.969C9.61742 12.9483 9.5303 12.9104 9.45455 12.8553C8.74242 12.4557 7.98485 12.1457 7.18182 11.9253C6.37879 11.7048 5.56061 11.5946 4.72727 11.5946C4.16667 11.5946 3.62121 11.6566 3.09091 11.7806C2.56061 11.9046 2.0303 12.0562 1.5 12.2353C1.15152 12.3869 0.814394 12.3662 0.488636 12.1733C0.162879 11.9804 0 11.7048 0 11.3466V1.77742C0 1.57075 0.0530303 1.38129 0.159091 1.20906C0.265151 1.03683 0.424242 0.902491 0.636364 0.806041C1.27273 0.530472 1.93561 0.327239 2.625 0.196344C3.31439 0.065448 4.01515 0 4.72727 0C5.68182 0 6.60985 0.117117 7.51136 0.351351C8.41288 0.585586 9.25758 0.943826 10.0455 1.42607C10.8182 0.943826 11.6477 0.585586 12.5341 0.351351C13.4205 0.117117 14.3333 0 15.2727 0C15.9848 0 16.6818 0.065448 17.3636 0.196344C18.0455 0.327239 18.7045 0.530472 19.3409 0.806041C19.553 0.902491 19.7159 1.03683 19.8295 1.20906C19.9432 1.38129 20 1.57075 20 1.77742V11.3466C20 11.7324 19.8295 12.0252 19.4886 12.225C19.1477 12.4247 18.8106 12.4282 18.4773 12.2353C17.9621 12.0424 17.4394 11.8874 16.9091 11.7703C16.3788 11.6532 15.8333 11.5946 15.2727 11.5946C14.4545 11.5946 13.6515 11.7048 12.8636 11.9253C12.0758 12.1457 11.3333 12.4557 10.6364 12.8553C10.5606 12.9104 10.4735 12.9483 10.375 12.969C10.2765 12.9897 10.1667 13 10.0455 13V13Z" fill="#99ED20"/>
</svg>
